<svg xmlns="http://www.w3.org/2000/svg" viewBox="0 0 600 600" width="600" height="600">
  <defs>
    <pattern id="tile" x="0" y="0" width="60" height="60" patternUnits="userSpaceOnUse">
      <rect width="60" height="60" fill="#c87941"/>
      <rect x="3" y="3" width="54" height="54" fill="#d4916a"/>
      <path d="M30 3L57 30L30 57L3 30Z" fill="#a0522d" opacity="0.35"/>
      <circle cx="30" cy="30" r="6" fill="#b5651d" opacity="0.4"/>
    </pattern>
    <linearGradient id="shimmer" x1="0%" y1="0%" x2="100%" y2="100%">
      <stop offset="0%" stop-color="rgba(255,255,255,0.15)"/>
      <stop offset="50%" stop-color="rgba(255,255,255,0)"/>
      <stop offset="100%" stop-color="rgba(0,0,0,0.1)"/>
    </linearGradient>
  </defs>
  <rect width="600" height="600" fill="url(#tile)"/>
  <rect width="600" height="600" fill="url(#shimmer)"/>
  <!-- Grout lines -->
  <line x1="0" y1="60" x2="600" y2="60" stroke="rgba(255,255,255,0.12)" stroke-width="2"/>
  <line x1="0" y1="120" x2="600" y2="120" stroke="rgba(255,255,255,0.12)" stroke-width="2"/>
  <line x1="0" y1="180" x2="600" y2="180" stroke="rgba(255,255,255,0.12)" stroke-width="2"/>
  <line x1="0" y1="240" x2="600" y2="240" stroke="rgba(255,255,255,0.12)" stroke-width="2"/>
  <line x1="0" y1="300" x2="600" y2="300" stroke="rgba(255,255,255,0.12)" stroke-width="2"/>
  <line x1="0" y1="360" x2="600" y2="360" stroke="rgba(255,255,255,0.12)" stroke-width="2"/>
  <line x1="0" y1="420" x2="600" y2="420" stroke="rgba(255,255,255,0.12)" stroke-width="2"/>
  <line x1="0" y1="480" x2="600" y2="480" stroke="rgba(255,255,255,0.12)" stroke-width="2"/>
  <line x1="0" y1="540" x2="600" y2="540" stroke="rgba(255,255,255,0.12)" stroke-width="2"/>
  <line x1="60" y1="0" x2="60" y2="600" stroke="rgba(255,255,255,0.12)" stroke-width="2"/>
  <line x1="120" y1="0" x2="120" y2="600" stroke="rgba(255,255,255,0.12)" stroke-width="2"/>
  <line x1="180" y1="0" x2="180" y2="600" stroke="rgba(255,255,255,0.12)" stroke-width="2"/>
  <line x1="240" y1="0" x2="240" y2="600" stroke="rgba(255,255,255,0.12)" stroke-width="2"/>
  <line x1="300" y1="0" x2="300" y2="600" stroke="rgba(255,255,255,0.12)" stroke-width="2"/>
  <line x1="360" y1="0" x2="360" y2="600" stroke="rgba(255,255,255,0.12)" stroke-width="2"/>
  <line x1="420" y1="0" x2="420" y2="600" stroke="rgba(255,255,255,0.12)" stroke-width="2"/>
  <line x1="480" y1="0" x2="480" y2="600" stroke="rgba(255,255,255,0.12)" stroke-width="2"/>
  <line x1="540" y1="0" x2="540" y2="600" stroke="rgba(255,255,255,0.12)" stroke-width="2"/>
</svg>
