<svg xmlns="http://www.w3.org/2000/svg" viewBox="0 0 680 180" width="680" height="180">
  <!-- Ceramic -->
  <rect x="0" y="0" width="160" height="160" rx="12" fill="#fef3c7"/>
  <rect x="10" y="10" width="60" height="60" rx="4" fill="#f59e0b" opacity="0.35"/>
  <rect x="75" y="10" width="60" height="60" rx="4" fill="#d97706" opacity="0.35"/>
  <rect x="10" y="75" width="60" height="60" rx="4" fill="#d97706" opacity="0.35"/>
  <rect x="75" y="75" width="60" height="60" rx="4" fill="#f59e0b" opacity="0.35"/>
  <text x="80" y="152" font-family="Georgia, serif" font-size="14" fill="#92400e" font-weight="600" text-anchor="middle">Ceramic</text>

  <!-- Marble -->
  <rect x="173" y="0" width="160" height="160" rx="12" fill="#f3f4f6"/>
  <path d="M173 40 Q230 30 270 50 Q310 65 333 45" stroke="#9ca3af" stroke-width="2" fill="none" opacity="0.5"/>
  <path d="M173 90 Q210 80 245 100 Q280 115 333 95" stroke="#6b7280" stroke-width="1.5" fill="none" opacity="0.35"/>
  <path d="M200 0 Q215 40 205 80 Q195 120 215 160" stroke="#d1d5db" stroke-width="1.2" fill="none" opacity="0.5"/>
  <text x="253" y="152" font-family="Georgia, serif" font-size="14" fill="#374151" font-weight="600" text-anchor="middle">Marble</text>

  <!-- Mosaic -->
  <rect x="346" y="0" width="160" height="160" rx="12" fill="#d1fae5"/>
  <rect x="356" y="10" width="30" height="30" rx="2" fill="#059669" opacity="0.5"/>
  <rect x="390" y="10" width="30" height="30" rx="2" fill="#047857" opacity="0.5"/>
  <rect x="424" y="10" width="30" height="30" rx="2" fill="#059669" opacity="0.5"/>
  <rect x="458" y="10" width="30" height="30" rx="2" fill="#047857" opacity="0.5"/>
  <rect x="356" y="44" width="30" height="30" rx="2" fill="#047857" opacity="0.5"/>
  <rect x="390" y="44" width="30" height="30" rx="2" fill="#059669" opacity="0.5"/>
  <rect x="424" y="44" width="30" height="30" rx="2" fill="#047857" opacity="0.5"/>
  <rect x="458" y="44" width="30" height="30" rx="2" fill="#059669" opacity="0.5"/>
  <rect x="356" y="78" width="30" height="30" rx="2" fill="#059669" opacity="0.5"/>
  <rect x="390" y="78" width="30" height="30" rx="2" fill="#047857" opacity="0.5"/>
  <text x="426" y="152" font-family="Georgia, serif" font-size="14" fill="#064e3b" font-weight="600" text-anchor="middle">Mosaic</text>

  <!-- Porcelain -->
  <rect x="519" y="0" width="160" height="160" rx="12" fill="#e0f2fe"/>
  <path d="M549 30L579 60L549 90L519 60Z" fill="none" stroke="#0ea5e9" stroke-width="1.5" opacity="0.4"/>
  <path d="M549 60L579 90L549 120L519 90Z" fill="none" stroke="#0ea5e9" stroke-width="1.5" opacity="0.4"/>
  <path d="M579 30L609 60L579 90L549 60Z" fill="none" stroke="#0284c7" stroke-width="1.5" opacity="0.4"/>
  <path d="M579 60L609 90L579 120L549 90Z" fill="none" stroke="#0284c7" stroke-width="1.5" opacity="0.4"/>
  <circle cx="549" cy="60" r="5" fill="#0ea5e9" opacity="0.35"/>
  <circle cx="579" cy="60" r="5" fill="#0284c7" opacity="0.35"/>
  <circle cx="549" cy="90" r="5" fill="#0284c7" opacity="0.35"/>
  <circle cx="579" cy="90" r="5" fill="#0ea5e9" opacity="0.35"/>
  <text x="599" y="152" font-family="Georgia, serif" font-size="14" fill="#075985" font-weight="600" text-anchor="middle">Porcelain</text>
</svg>
